<?xml version="1.0" encoding="UTF-8" standalone="no"?>
<svg
   width="378.25031"
   height="536.06598"
   version="1.1"
   viewBox="0 0 378.25031 536.06598"
   id="svg55"
   sodipodi:docname="nonstick.svg"
   inkscape:version="1.3.2 (091e20ef0f, 2023-11-25)"
   xmlns:inkscape="http://www.inkscape.org/namespaces/inkscape"
   xmlns:sodipodi="http://sodipodi.sourceforge.net/DTD/sodipodi-0.dtd"
   xmlns="http://www.w3.org/2000/svg"
   xmlns:svg="http://www.w3.org/2000/svg">
  <sodipodi:namedview
     id="namedview55"
     pagecolor="#ffffff"
     bordercolor="#000000"
     borderopacity="0.25"
     inkscape:showpageshadow="2"
     inkscape:pageopacity="0.0"
     inkscape:pagecheckerboard="0"
     inkscape:deskcolor="#d1d1d1"
     inkscape:clip-to-page="false"
     inkscape:zoom="1.5733333"
     inkscape:cx="346.7161"
     inkscape:cy="261.22881"
     inkscape:window-width="2560"
     inkscape:window-height="1387"
     inkscape:window-x="4288"
     inkscape:window-y="25"
     inkscape:window-maximized="0"
     inkscape:current-layer="svg55" />
  <defs
     id="defs39">
    <linearGradient
       id="e"
       x1="297.51999"
       x2="410.04001"
       y1="239.39"
       y2="239.39"
       gradientTransform="matrix(1.8447,0,0,1.8447,-502.61,-63.4)"
       gradientUnits="userSpaceOnUse">
      <stop
         stop-color="#9E9E9E"
         offset="0"
         id="stop1" />
      <stop
         stop-color="#A1A2A3"
         offset=".0374"
         id="stop2" />
      <stop
         stop-color="#ACAFB1"
         offset=".0803"
         id="stop3" />
      <stop
         stop-color="#BCC4C8"
         offset=".1257"
         id="stop4" />
      <stop
         stop-color="#CEDBE0"
         offset=".1629"
         id="stop5" />
      <stop
         stop-color="#D0DCE1"
         offset=".2183"
         id="stop6" />
      <stop
         stop-color="#D7E1E5"
         offset=".2383"
         id="stop7" />
      <stop
         stop-color="#E2EAED"
         offset=".2525"
         id="stop8" />
      <stop
         stop-color="#F3F6F8"
         offset=".2639"
         id="stop9" />
      <stop
         stop-color="#fff"
         offset=".2697"
         id="stop10" />
      <stop
         stop-color="#E1E1E1"
         offset=".3298"
         id="stop11" />
      <stop
         stop-color="#BDBDBD"
         offset=".4149"
         id="stop12" />
      <stop
         stop-color="#A6A6A6"
         offset=".4841"
         id="stop13" />
      <stop
         stop-color="#9E9E9E"
         offset=".5281"
         id="stop14" />
      <stop
         stop-color="#A1A1A1"
         offset=".64"
         id="stop15" />
      <stop
         stop-color="#ABABAB"
         offset=".7323"
         id="stop16" />
      <stop
         stop-color="#BDBDBD"
         offset=".8176"
         id="stop17" />
      <stop
         stop-color="#D5D5D5"
         offset=".8987"
         id="stop18" />
      <stop
         stop-color="#F4F4F4"
         offset=".9761"
         id="stop19" />
      <stop
         stop-color="#fff"
         offset="1"
         id="stop20" />
    </linearGradient>
    <linearGradient
       id="f"
       x1="297.60999"
       x2="410.13"
       y1="235.89999"
       y2="235.89999"
       gradientTransform="matrix(1.8447,0,0,1.8447,-502.61,-63.4)"
       gradientUnits="userSpaceOnUse">
      <stop
         stop-color="#F70F34"
         offset="0"
         id="stop21" />
      <stop
         stop-color="#F71738"
         offset=".0143"
         id="stop22" />
      <stop
         stop-color="#F84551"
         offset=".0899"
         id="stop23" />
      <stop
         stop-color="#F86666"
         offset=".1566"
         id="stop24" />
      <stop
         stop-color="#F87B74"
         offset=".2113"
         id="stop25" />
      <stop
         stop-color="#F98379"
         offset=".2472"
         id="stop26" />
      <stop
         stop-color="#F86163"
         offset=".3868"
         id="stop27" />
      <stop
         stop-color="#F83D4D"
         offset=".5688"
         id="stop28" />
      <stop
         stop-color="#F7213E"
         offset=".7375"
         id="stop29" />
      <stop
         stop-color="#F71436"
         offset=".8865"
         id="stop30" />
      <stop
         stop-color="#F70F34"
         offset="1"
         id="stop31" />
    </linearGradient>
    <radialGradient
       id="g"
       cx="353.78"
       cy="132.75999"
       r="44.553001"
       gradientTransform="matrix(1.8447,0,0,1.8447,-502.61,-63.4)"
       gradientUnits="userSpaceOnUse">
      <stop
         stop-color="#CEDBE0"
         offset="0"
         id="stop32" />
      <stop
         stop-color="#C9D5DA"
         offset=".1192"
         id="stop33" />
      <stop
         stop-color="#BDC5C8"
         offset=".2829"
         id="stop34" />
      <stop
         stop-color="#A8AAAB"
         offset=".4717"
         id="stop35" />
      <stop
         stop-color="#9E9E9E"
         offset=".5449"
         id="stop36" />
    </radialGradient>
    <radialGradient
       id="h"
       cx="352.57001"
       cy="-594.77002"
       r="35.424"
       gradientTransform="matrix(1.8447,0,0,1.4728,-502.61,1022.7)"
       gradientUnits="userSpaceOnUse">
      <stop
         stop-color="#fff"
         offset="0"
         id="stop37" />
      <stop
         stop-color="#CEDBE0"
         offset=".5618"
         id="stop38" />
      <stop
         stop-color="#9E9E9E"
         offset="1"
         id="stop39" />
    </radialGradient>
  </defs>
  <g
     stroke-width="1.8447"
     id="g55"
     transform="translate(-5.3775755,-6.5478035)">
    <g
       id="g56"
       transform="rotate(-27.5,90.481335,247.10159)">
      <path
         d="m 69.262,490.28 c -31.426,10.02 -38.02,23.265 -38.02,32.612 0,9.347 6.5947,22.594 38.02,32.614 21.682,6.9138 50.356,10.721 80.739,10.721 30.385,0 59.059,-3.8055 80.739,-10.721 31.426,-10.02 38.02,-23.265 38.02,-32.614 0,-9.3451 -6.5947,-22.592 -38.02,-32.612 -21.682,-6.9138 -50.354,-10.721 -80.739,-10.721 -30.384,0 -59.057,3.8074 -80.739,10.721 z m 4.8755,49.932 c -18.443,-5.8809 -26.845,-13.103 -26.845,-17.322 0,-4.2169 8.4025,-11.437 26.845,-17.318 20.149,-6.4231 47.091,-9.9612 75.864,-9.9612 28.775,0 55.716,3.5381 75.864,9.9612 18.443,5.8808 26.845,13.101 26.845,17.318 0,4.2188 -8.4025,11.439 -26.845,17.322 -20.147,6.4231 -47.089,9.9612 -75.864,9.9612 -28.773,0 -55.715,-3.5381 -75.864,-9.9612 z"
         id="path39" />
      <path
         d="m 252.71,522.88 v 11.703 c 0,4.2188 -8.4025,11.437 -26.845,17.32 -20.147,6.4231 -47.089,9.9612 -75.864,9.9612 -28.773,0 -55.715,-3.5381 -75.864,-9.9612 -18.443,-5.8808 -26.845,-13.101 -26.845,-17.32 V 522.88 h -16.05 v 11.703 c 0,9.3469 6.5947,22.592 38.02,32.612 21.682,6.9138 50.356,10.721 80.739,10.721 30.385,0 59.059,-3.8055 80.739,-10.721 31.426,-10.02 38.02,-23.263 38.02,-32.612 V 522.88 Z"
         id="path40" />
      <path
         d="m 253.78,205.61 v 315.4 c 0,16.443 -46.884,29.773 -104.05,29.773 -57.17,0 -103.51,-13.33 -103.51,-29.773 V 205.6"
         fill="url(#e)"
         id="path41"
         style="fill:#e5e5e5;fill-opacity:1" />
      <path
         d="m 38.192,205.61 v 315.41 c 0,12.191 12.155,21.87 36.126,28.766 20.253,5.8255 47.034,9.0315 75.414,9.0315 53.979,0 112.08,-11.828 112.08,-37.797 v -315.4 H 245.76 v 315.4 c 0,1.2433 -4.4069,7.5207 -24.765,13.335 -18.996,5.4234 -44.303,8.4117 -71.26,8.4117 -26.921,0 -52.127,-2.9846 -70.977,-8.408 -20.35,-5.855 -24.51,-12.012 -24.51,-13.339 v -315.41 z"
         id="path42" />
      <path
         d="m 46.371,439.2 c 0,16.443 46.344,29.773 103.51,29.773 57.168,0 104.05,-13.33 104.05,-29.773 V 274.54 c 0,16.443 -46.882,29.773 -104.05,29.773 -57.168,0 -103.51,-13.33 -103.51,-29.773 z"
         fill="url(#f)"
         id="path43"
         style="opacity:1;fill:#0028b8;fill-opacity:1" />
      <path
         d="m 245.91,274.54 c 0,1.2433 -4.4069,7.5207 -24.767,13.335 -18.995,5.4233 -44.302,8.4117 -71.26,8.4117 -26.919,0 -52.127,-2.9847 -70.977,-8.408 -20.349,-5.8531 -24.51,-12.011 -24.51,-13.339 h -16.05 v 164.66 c 0,12.191 12.155,21.87 36.124,28.766 20.253,5.8255 47.035,9.0315 75.414,9.0315 53.981,0 112.08,-11.828 112.08,-37.797 v -164.66 z m 0,20.777 v 143.88 c 0,1.2415 -4.4069,7.5207 -24.767,13.335 -18.995,5.4233 -44.302,8.4117 -71.26,8.4117 -26.919,0 -52.127,-2.9847 -70.977,-8.408 -20.349,-5.855 -24.51,-12.012 -24.51,-13.339 v -143.76 c 5.3661,2.9256 12.04,5.558 20.074,7.8694 20.253,5.8236 47.035,9.0315 75.414,9.0315 36.58,0 75.025,-5.4399 96.026,-17.023 z"
         id="path44" />
      <path
         d="m 252.71,181.5 v 11.773 c 0,4.2169 -8.4025,11.437 -26.845,17.32 -20.147,6.4232 -47.089,9.9612 -75.864,9.9612 -28.773,0 -55.715,-3.5381 -75.864,-9.9612 C 55.694,204.7122 47.292,197.49 47.292,193.273 V 181.5 h -16.05 v 11.773 c 0,9.3451 6.5947,22.592 38.02,32.612 21.682,6.9138 50.356,10.721 80.739,10.721 30.385,0 59.059,-3.8056 80.739,-10.721 31.426,-10.02 38.02,-23.265 38.02,-32.612 V 181.5 Z"
         id="path45" />
      <path
         d="m 260.73,181.5 c 0,19.5 -49.577,35.309 -110.73,35.309 -61.156,0 -110.73,-15.807 -110.73,-35.309 0,-19.498 49.577,-35.307 110.73,-35.307 61.156,0 110.73,15.807 110.73,35.307 z"
         fill="url(#g)"
         id="path46"
         style="fill:#e5e5e5;fill-opacity:1" />
      <path
         d="m 69.262,148.89 c -31.426,10.02 -38.02,23.263 -38.02,32.612 0,9.349 6.5947,22.594 38.02,32.614 21.682,6.912 50.356,10.721 80.739,10.721 30.385,0 59.059,-3.8074 80.739,-10.721 31.426,-10.02 38.02,-23.265 38.02,-32.614 0,-9.349 -6.5947,-22.592 -38.02,-32.612 -21.682,-6.9138 -50.354,-10.721 -80.739,-10.721 -30.384,0.002 -59.057,3.8074 -80.739,10.721 z m 4.8755,49.93 c -18.443,-5.8808 -26.845,-13.101 -26.845,-17.32 0,-4.219 8.4025,-11.437 26.845,-17.32 20.149,-6.4231 47.091,-9.9612 75.864,-9.9612 28.775,0 55.716,3.5381 75.864,9.9612 18.443,5.8808 26.845,13.101 26.845,17.32 0,4.219 -8.4025,11.439 -26.845,17.32 -20.147,6.4232 -47.089,9.9612 -75.864,9.9612 -28.773,0.002 -55.715,-3.5362 -75.864,-9.9612 z"
         id="path47" />
      <path
         d="m 65.111,179.72 c 0,-36.447 37.006,-65.995 82.656,-65.995 45.65,0 82.656,29.55 82.656,65.995"
         fill="url(#h)"
         id="path48"
         style="fill:#e5e5e5;fill-opacity:1" />
      <path
         d="m 84.312,126.79 c -17.559,14.019 -27.229,32.819 -27.229,52.936 h 16.052 c 0,-31.964 33.477,-57.969 74.63,-57.969 41.153,0 74.63,26.004 74.63,57.969 h 16.052 c 0,-20.118 -9.6698,-38.919 -27.229,-52.936 -17.028,-13.595 -39.563,-21.085 -63.453,-21.085 -23.89,0 -46.423,7.4875 -63.453,21.085 z"
         id="path49" />
      <path
         d="m 118.08,39.76 -0.26932,66.694 c 0,10.083 16.532,18.255 36.923,18.255 20.393,0 36.925,-8.1737 36.925,-18.255 l -0.26932,-66.692"
         fill="#ffffff"
         id="path50" />
      <path
         d="m 109.79,106.42 c 0,8.1221 5.427,15.261 15.283,20.135 8.0575,3.9845 18.592,6.1796 29.664,6.1796 11.074,0 21.608,-2.1933 29.666,-6.1796 9.8561,-4.8736 15.283,-12.012 15.283,-20.101 l -0.26932,-66.725 -16.05,0.0646 0.26747,66.692 c 0,2.9367 -10.125,10.197 -28.897,10.197 -18.77,0 -28.897,-7.2625 -28.897,-10.231 l 0.26932,-66.663 -16.05,-0.0646 z"
         id="path51" />
      <path
         d="m 191.39,39.76 c 0,5.32 -16.41,9.631 -36.654,9.631 -20.245,0 -36.654,-4.311 -36.654,-9.6329 0,-5.3182 16.41,-9.631 36.654,-9.631 20.244,0 36.654,4.3128 36.654,9.6329 z"
         fill="#ffffff"
         id="path52" />
      <path
         d="m 126.78,25.18 c -11.096,2.9146 -16.72,7.8177 -16.72,14.571 0,6.7552 5.6262,11.658 16.72,14.573 7.5705,1.9886 17.499,3.0843 27.958,3.0843 10.459,0 20.389,-1.0957 27.958,-3.0843 11.096,-2.9146 16.72,-7.8177 16.72,-14.571 0,-6.7552 -5.6262,-11.658 -16.72,-14.573 -7.5705,-1.9886 -17.499,-3.0843 -27.958,-3.0843 -10.459,0 -20.389,1.0957 -27.958,3.0843 z m 27.958,12.968 c 7.9561,0 14.53,0.69544 19.502,1.6067 -4.9714,0.90942 -11.546,1.6049 -19.502,1.6049 -7.956,0 -14.53,-0.69544 -19.502,-1.6049 4.9714,-0.91127 11.546,-1.6067 19.502,-1.6067 z"
         id="path53" />
      <path
         d="m 139.45,91.67 c 0,8.5574 6.9599,15.517 15.516,15.517 8.5574,0 15.517,-6.9599 15.517,-15.517 0,-8.5556 -6.9599,-15.516 -15.517,-15.516 -8.5556,0 -15.516,6.9618 -15.516,15.516 z m 5.3496,0 c 0,-5.606 4.5619,-10.166 10.166,-10.166 5.606,0 10.168,4.56 10.168,10.166 0,5.606 -4.5619,10.166 -10.168,10.166 -5.6041,0 -10.166,-4.5582 -10.166,-10.166 z"
         id="path54" />
      <path
         d="m 163.19,90.52 c -0.26194,4.3184 -4.2538,7.5908 -8.9153,7.3086 -4.6596,-0.28039 -8.2272,-4.0122 -7.9653,-8.3305 0.26194,-4.3202 4.252,-7.5908 8.9134,-7.3086 4.6614,0.2822 8.2291,4.0122 7.9671,8.3305 z"
         id="path55" />
    </g>
  </g>
</svg>
